<svg xmlns="http://www.w3.org/2000/svg" viewBox="0 0 24 24" fill="#FF5A5F">
  <path d="M12 0C5.373 0 0 5.373 0 12s5.373 12 12 12 12-5.373 12-12S18.627 0 12 0zm5.894 16.347c-.226.458-.678.89-1.356 1.293-.678.404-1.582.707-2.712.91-1.13.202-2.486.303-4.068.303-1.13 0-2.147-.076-3.05-.227-.904-.152-1.682-.378-2.334-.678-.652-.3-1.166-.678-1.542-1.13-.377-.453-.565-.984-.565-1.594 0-.452.113-.878.34-1.28.226-.4.565-.758 1.017-1.073.452-.315 1.017-.59 1.695-.828.678-.238 1.468-.427 2.372-.565-.452-.264-.79-.54-1.017-.828-.226-.29-.34-.615-.34-.979 0-.326.088-.64.264-.94.177-.302.427-.578.753-.828-.565-.264-1.017-.603-1.356-1.017-.34-.414-.509-.916-.509-1.506 0-.49.113-.94.34-1.355.226-.414.552-.765.978-1.054.427-.29.941-.515 1.544-.678.602-.164 1.28-.245 2.033-.245.452 0 .878.038 1.28.113.4.076.765.177 1.092.303h3.39v1.506h-1.92c.226.264.402.565.527.904.126.34.189.703.189 1.092 0 .49-.113.94-.34 1.355-.226.414-.54.765-.94 1.054-.402.29-.879.515-1.432.678-.552.164-1.167.245-1.845.245-.377 0-.74-.025-1.092-.076-.35-.05-.665-.126-.94-.226-.226.15-.402.315-.527.49-.126.177-.189.365-.189.565 0 .264.113.465.34.603.226.138.552.245.978.32.427.076.941.138 1.544.19.602.05 1.28.113 2.033.188.753.076 1.431.19 2.033.34.602.15 1.117.365 1.544.64.427.278.765.628 1.017 1.055.25.427.377.953.377 1.582 0 .565-.113 1.08-.34 1.543z"/>
</svg>
